{"accessors":[{"bufferView":2,"componentType":5126,"count":800,"max":[36.2427978515625,19.79278564453125,28.233898162841797],"min":[-36.2427978515625,-19.792781829833984,-28.23389434814453],"type":"VEC3"},{"bufferView":2,"byteOffset":9600,"componentType":5126,"count":800,"max":[1.0,1.0,1.0],"min":[-1.0,-1.0,-1.0],"type":"VEC3"},{"bufferView":3,"componentType":5126,"count":800,"max":[1.0,1.0,1.0,1.0],"min":[-1.0,-1.0,-1.0,-1.0],"type":"VEC4"},{"bufferView":1,"componentType":5126,"count":800,"max":[0.9995739459991455,0.9994423389434814],"min":[0.000601484440267086,0.0009737303480505943],"type":"VEC2"},{"bufferView":1,"byteOffset":6400,"componentType":5126,"count":800,"max":[0.9995739459991455,0.9994423389434814],"min":[0.000601484440267086,0.0009737303480505943],"type":"VEC2"},{"bufferView":1,"byteOffset":12800,"componentType":5126,"count":800,"max":[0.9995739459991455,0.9994423389434814],"min":[0.000601484440267086,0.0009737303480505943],"type":"VEC2"},{"bufferView":0,"componentType":5125,"count":1338,"type":"SCALAR"}],"asset":{"extras":{"author":"plaggy (https://sketchfab.com/plaggy)","license":"CC-BY-4.0 (http://creativecommons.org/licenses/by/4.0/)","source":"https://sketchfab.com/3d-models/cc0-antenna-6bc0ff4565db46ab8f7d229a5d272c12","title":"CC0 - Antenna"},"generator":"Sketchfab-16.14.0","version":"2.0"},"bufferViews":[{"buffer":0,"byteLength":5352,"name":"floatBufferViews","target":34963},{"buffer":0,"byteLength":19200,"byteOffset":5352,"byteStride":8,"name":"floatBufferViews","target":34962},{"buffer":0,"byteLength":19200,"byteOffset":24552,"byteStride":12,"name":"floatBufferViews","target":34962},{"buffer":0,"byteLength":12800,"byteOffset":43752,"byteStride":16,"name":"floatBufferViews","target":34962}],"buffers":[{"byteLength":56552,"uri":"antenna.bin"}],"materials":[{"doubleSided":true,"name":"Antenna","pbrMetallicRoughness":{}}],"meshes":[{"name":"Antenna_Antenna_0","primitives":[{"attributes":{"NORMAL":1,"POSITION":0,"TANGENT":2,"TEXCOORD_0":3,"TEXCOORD_1":4,"TEXCOORD_2":5},"indices":6,"material":0,"mode":4}]}],"nodes":[{"children":[1],"matrix":[1.0,0.0,0.0,0.0,0.0,2.220446049250313e-16,-1.0,0.0,0.0,1.0,2.220446049250313e-16,0.0,0.0,0.0,0.0,1.0],"name":"Sketchfab_model"},{"children":[2],"matrix":[1.0,0.0,0.0,0.0,0.0,0.0,1.0,0.0,0.0,-1.0,0.0,0.0,0.0,0.0,0.0,1.0],"name":"d31c0676c9384318b5c9221a00aae632.fbx"},{"children":[3],"name":"RootNode"},{"children":[4],"matrix":[0.02539999969303608,0.0,0.0,0.0,0.0,5.639932896936113e-18,-0.02539999969303608,0.0,0.0,0.02539999969303608,5.639932896936113e-18,0.0,0.0,0.0,0.0,1.0],"name":"Antenna"},{"mesh":0,"name":"Antenna_Antenna_0"}],"scene":0,"scenes":[{"name":"Sketchfab_Scene","nodes":[0]}]}