{"accessors":[{"bufferView":2,"componentType":5126,"count":1623,"max":[0.1450909972190857,0.7354609966278076,2.0659220218658447],"min":[-0.6595979928970337,-0.9401379823684692,-2.015197992324829],"type":"VEC3"},{"bufferView":2,"byteOffset":19476,"componentType":5126,"count":1623,"max":[1.0,1.0,1.0],"min":[-1.0,-1.0,-1.0],"type":"VEC3"},{"bufferView":3,"componentType":5126,"count":1623,"max":[1.0,1.0,0.17851188778877258,1.0],"min":[-1.0,-1.0,-1.0,1.0],"type":"VEC4"},{"bufferView":1,"componentType":5126,"count":1623,"max":[1.0,0.983938992023468],"min":[0.0,0.0],"type":"VEC2"},{"bufferView":0,"componentType":5125,"count":5136,"type":"SCALAR"}],"asset":{"extras":{"author":"uliana (https://sketchfab.com/uliana-)","license":"CC-BY-4.0 (http://creativecommons.org/licenses/by/4.0/)","source":"https://sketchfab.com/3d-models/old-soviet-electrical-junction-box-220v-fe37bff7b3fa45a7960b7defa30b3f3e","title":"Old Soviet Electrical Junction Box (220V)"},"generator":"Sketchfab-17.17.0","version":"2.0"},"bufferViews":[{"buffer":0,"byteLength":20544,"name":"floatBufferViews","target":34963},{"buffer":0,"byteLength":12984,"byteOffset":20544,"byteStride":8,"name":"floatBufferViews","target":34962},{"buffer":0,"byteLength":38952,"byteOffset":33528,"byteStride":12,"name":"floatBufferViews","target":34962},{"buffer":0,"byteLength":25968,"byteOffset":72480,"byteStride":16,"name":"floatBufferViews","target":34962}],"buffers":[{"byteLength":98448,"uri":"cabinet.bin"}],"materials":[{"alphaMode":"BLEND","doubleSided":true,"emissiveFactor":[1.0,1.0,1.0],"name":"DefaultMaterial","pbrMetallicRoughness":{}}],"meshes":[{"name":"defaultMaterial","primitives":[{"attributes":{"NORMAL":1,"POSITION":0,"TANGENT":2,"TEXCOORD_0":3},"indices":4,"material":0,"mode":4}]}],"nodes":[{"children":[1],"matrix":[1.0,0.0,0.0,0.0,0.0,2.220446049250313e-16,-1.0,0.0,0.0,1.0,2.220446049250313e-16,0.0,0.0,0.0,0.0,1.0],"name":"Sketchfab_model"},{"children":[2],"matrix":[1.0,0.0,0.0,0.0,0.0,-4.371139006309477e-08,0.999999999999999,0.0,0.0,-0.999999999999999,-4.371139006309477e-08,0.0,0.0,0.0,0.0,1.0],"name":"Collada visual scene group"},{"children":[3],"matrix":[100.0,0.0,0.0,0.0,0.0,-1.6e-05,-100.0,0.0,0.0,100.0,-1.6e-05,0.0,160.806381,402.303925,2345.132324,1.0],"name":"Cylinder"},{"mesh":0,"name":"defaultMaterial"}],"scene":0,"scenes":[{"name":"Sketchfab_Scene","nodes":[0]}]}