{"accessors":[{"bufferView":1,"componentType":5126,"count":1797,"max":[1.543720006942749,1.7525399923324585,-0.6959900259971619],"min":[-1.5546799898147583,-1.7525399923324585,-11.55228042602539],"type":"VEC3"},{"bufferView":1,"byteOffset":21564,"componentType":5126,"count":1797,"max":[1.0,1.0,1.0],"min":[-1.0,-1.0,-1.0],"type":"VEC3"},{"bufferView":0,"componentType":5125,"count":3447,"type":"SCALAR"},{"bufferView":1,"byteOffset":43128,"componentType":5126,"count":4,"max":[1.0,1.0,0.0],"min":[-1.0,-1.0,0.0],"type":"VEC3"},{"bufferView":1,"byteOffset":43176,"componentType":5126,"count":4,"max":[0.0,0.0,1.0],"min":[0.0,0.0,1.0],"type":"VEC3"},{"bufferView":0,"byteOffset":13788,"componentType":5125,"count":6,"type":"SCALAR"}],"asset":{"extras":{"author":"Kaqui (https://sketchfab.com/Kaqui)","license":"CC-BY-4.0 (http://creativecommons.org/licenses/by/4.0/)","source":"https://sketchfab.com/3d-models/transmission-tower-f1bab970dbb541ae87116217470c1cb3","title":"Transmission tower"},"generator":"Sketchfab-14.64.0","version":"2.0"},"bufferViews":[{"buffer":0,"byteLength":13812,"name":"floatBufferViews","target":34963},{"buffer":0,"byteLength":43224,"byteOffset":13812,"byteStride":12,"name":"floatBufferViews","target":34962}],"buffers":[{"byteLength":57036,"uri":"pylon.bin"}],"materials":[{"doubleSided":true,"name":"Material.001","pbrMetallicRoughness":{"baseColorFactor":[0.4712271341,0.4712271341,0.4712271341,1.0],"metallicFactor":0.0,"roughnessFactor":0.6}},{"doubleSided":true,"name":"Material","pbrMetallicRoughness":{"baseColorFactor":[0.0693571372,0.055401084,0.055401084,1.0],"metallicFactor":0.0,"roughnessFactor":0.6}}],"meshes":[{"name":"Plane_0","primitives":[{"attributes":{"NORMAL":1,"POSITION":0},"indices":2,"material":1,"mode":4}]},{"name":"Plane.001_0","primitives":[{"attributes":{"NORMAL":4,"POSITION":3},"indices":5,"material":0,"mode":4}]}],"nodes":[{"children":[1],"matrix":[7.818738789955792e-16,-7.818738789955792e-16,3.521246910095215,0.0,3.521246910095215,1.7361087656277512e-31,-7.818738789955792e-16,0.0,0.0,3.521246910095215,7.818738789955792e-16,0.0,0.0,0.0,0.0,1.0],"name":"Sketchfab_model"},{"children":[2,4,6],"name":"Root"},{"children":[3],"matrix":[-0.29086000000000006,0.9551700000000001,-0.05519000000000001,0.0,-0.7711,-0.19988000000000003,0.6045200000000001,0.0,0.5663900000000001,0.21839000000000003,0.7946700000000001,0.0,4.076250000000001,1.00545,6.627589999999999,1.0],"name":"Lamp"},{"name":"Lamp"},{"children":[5],"matrix":[1.0,0.0,0.0,0.0,0.0,1.0,0.0,0.0,0.0,0.0,1.0,0.0,7.857809999999999,-8.278069999999998,6.27198,1.0],"name":"Plane"},{"mesh":0,"name":"Plane_0"},{"children":[7],"matrix":[12.28038,0.0,0.0,0.0,0.0,12.28038,0.0,0.0,0.0,0.0,12.28038,0.0,0.0,0.0,-5.323129999999999,1.0],"name":"Plane.001"},{"mesh":1,"name":"Plane.001_0"}],"scene":0,"scenes":[{"name":"Sketchfab_Scene","nodes":[0]}]}